<?xml version="1.0" encoding="UTF-8"?><svg id="a" xmlns="http://www.w3.org/2000/svg" viewBox="0 0 184.29 173.43"><defs><style>.b{fill:#fff;}</style></defs><path d="M165.48,170.93c-9,0-16.32-7.32-16.32-16.32v-36.36c0-8.54-10.66-14.93-20.18-14.93s-20.42,5.46-20.42,15.58v35.71c0,9-7.32,16.32-16.32,16.32s-16.32-7.32-16.32-16.32v-35.71c0-7.66-7.64-15.58-20.42-15.58-9.64,0-20.37,6.35-20.37,15.46v35.83c0,9-7.32,16.32-16.32,16.32s-16.32-7.32-16.32-16.32V18.82C2.5,9.82,9.82,2.5,18.82,2.5s16.32,7.32,16.32,16.32V63.17c0,9.11,10.74,15.46,20.37,15.46s20.42-5.96,20.42-15.58V18.82c0-9,7.32-16.32,16.32-16.32s16.32,7.32,16.32,16.32V63.05c0,9.32,10.56,15.58,20.42,15.58s20.18-5.23,20.18-14.93V18.82c0-9,7.32-16.32,16.32-16.32s16.32,7.32,16.32,16.32V154.61c0,9-7.32,16.32-16.32,16.32Z"/><path class="b" d="M165.48,5c7.62,0,13.82,6.2,13.82,13.82V154.61c0,7.62-6.2,13.82-13.82,13.82s-13.82-6.2-13.82-13.82v-36.36c0-9.98-11.97-17.43-22.68-17.43s-22.92,6.34-22.92,18.08v35.71c0,7.62-6.2,13.82-13.82,13.82s-13.82-6.2-13.82-13.82v-35.71c0-5.52-2.87-10.44-8.08-13.83-4.14-2.7-9.55-4.25-14.83-4.25-10.82,0-22.87,7.37-22.87,17.96v35.83c0,7.62-6.2,13.82-13.82,13.82s-13.82-6.2-13.82-13.82V18.82c0-7.62,6.2-13.82,13.82-13.82s13.82,6.2,13.82,13.82V63.17c0,5.21,2.85,9.99,8.02,13.46,4.27,2.86,9.68,4.5,14.85,4.5,11.02,0,22.92-6.91,22.92-18.08V18.82c0-7.62,6.2-13.82,13.82-13.82s13.82,6.2,13.82,13.82V63.05c0,10.81,11.85,18.08,22.92,18.08s22.68-6.11,22.68-17.43V18.82c0-7.62,6.2-13.82,13.82-13.82m0-5h0c-10.39,0-18.82,8.42-18.82,18.82V63.7c0,8.31-9.54,12.43-17.68,12.43s-17.92-5.19-17.92-13.08V18.82c0-10.39-8.42-18.82-18.82-18.82s-18.82,8.42-18.82,18.82V63.05c0,8.07-9.53,13.08-17.92,13.08s-17.87-5.42-17.87-12.96V18.82C37.63,8.42,29.21,0,18.82,0S0,8.42,0,18.82V154.61c0,10.39,8.42,18.82,18.82,18.82s18.82-8.42,18.82-18.82v-35.83c0-7.52,9.53-12.96,17.87-12.96s17.92,4.8,17.92,13.08v35.71c0,10.39,8.42,18.82,18.82,18.82s18.82-8.42,18.82-18.82v-35.71c0-8.66,9.53-13.08,17.92-13.08s17.68,5.49,17.68,12.43v36.36c0,10.39,8.42,18.82,18.82,18.82h0c10.39,0,18.82-8.42,18.82-18.82V18.82c0-10.39-8.42-18.82-18.82-18.82h0Z"/></svg>